<svg width="120" height="120" viewBox="0 0 120 120" fill="none" xmlns="http://www.w3.org/2000/svg">
<g clip-path="url(#clip0_571_2)">
<rect width="120" height="120" fill="url(#paint0_linear_571_2)"/>
<g filter="url(#filter0_ii_571_2)">
<path d="M22 60C22 47.8497 29.3873 38 38.5 38C47.6127 38 55 47.8497 55 60M38.5 21V99M65 60C65 47.8497 72.3873 38 81.5 38C90.6127 38 98 47.8497 98 60M81.5 21V99" stroke="#C6C6C6" stroke-opacity="0.32" stroke-width="8" stroke-linecap="round" stroke-linejoin="round"/>
</g>
<path d="M55 60C55 47.8497 47.6127 38 38.5 38C29.3873 38 22 47.8497 22 60" stroke="#3D3D3D" stroke-width="6" stroke-linecap="round"/>
<path d="M38.5 21L38.5 99" stroke="#3D3D3D" stroke-width="6" stroke-linecap="round"/>
<path d="M98 60C98 47.8497 90.6127 38 81.5 38C72.3873 38 65 47.8497 65 60" stroke="#3D3D3D" stroke-width="6" stroke-linecap="round"/>
<path d="M81.5 21V99" stroke="#3D3D3D" stroke-width="6" stroke-linecap="round"/>
</g>
<defs>
<filter id="filter0_ii_571_2" x="18" y="16" width="84" height="88" filterUnits="userSpaceOnUse" color-interpolation-filters="sRGB">
<feFlood flood-opacity="0" result="BackgroundImageFix"/>
<feBlend mode="normal" in="SourceGraphic" in2="BackgroundImageFix" result="shape"/>
<feColorMatrix in="SourceAlpha" type="matrix" values="0 0 0 0 0 0 0 0 0 0 0 0 0 0 0 0 0 0 127 0" result="hardAlpha"/>
<feOffset dy="-1"/>
<feGaussianBlur stdDeviation="0.5"/>
<feComposite in2="hardAlpha" operator="arithmetic" k2="-1" k3="1"/>
<feColorMatrix type="matrix" values="0 0 0 0 1 0 0 0 0 1 0 0 0 0 1 0 0 0 0.5 0"/>
<feBlend mode="normal" in2="shape" result="effect1_innerShadow_571_2"/>
<feColorMatrix in="SourceAlpha" type="matrix" values="0 0 0 0 0 0 0 0 0 0 0 0 0 0 0 0 0 0 127 0" result="hardAlpha"/>
<feOffset dy="1"/>
<feGaussianBlur stdDeviation="0.5"/>
<feComposite in2="hardAlpha" operator="arithmetic" k2="-1" k3="1"/>
<feColorMatrix type="matrix" values="0 0 0 0 0 0 0 0 0 0 0 0 0 0 0 0 0 0 0.25 0"/>
<feBlend mode="normal" in2="effect1_innerShadow_571_2" result="effect2_innerShadow_571_2"/>
</filter>
<linearGradient id="paint0_linear_571_2" x1="60" y1="120" x2="60" y2="0" gradientUnits="userSpaceOnUse">
<stop stop-color="#C0C0C0"/>
<stop offset="1" stop-color="#E0E0E0"/>
</linearGradient>
<clipPath id="clip0_571_2">
<rect width="120" height="120" fill="white"/>
</clipPath>
</defs>
</svg>
